<svg xmlns="http://www.w3.org/2000/svg" xmlns:xlink="http://www.w3.org/1999/xlink" version="1.1" x="0px" y="0px" viewBox="0 0 96 120" enable-background="new 0 0 96 96" xml:space="preserve"><path d="M74.008,0H62.256c-1.104,0-2,0.896-2,2c0,6.752-5.5,12.252-12.252,12.252C41.248,14.252,35.752,8.76,35.752,2  c0-1.104-0.896-2-2-2H22c-1.104,0-2,0.892-2,2v92c0,1.1,0.896,2,2,2h11.852c0.012,0,0.028,0,0.04,0c1.12,0.057,2.04-0.884,2.04-2  c0-0.271-0.056-0.54-0.156-0.779L35.752,93c0-6.752,5.496-12.252,12.252-12.252s12.252,5.492,12.217,12.564l-0.068,0.547  c-0.036,0.557,0.156,1.101,0.535,1.5C61.068,95.775,61.596,96,62.148,96H74c1.104,0,2-0.9,2-2V2C76.008,0.892,75.107,0,74.008,0  L74.008,0z M32.008,64h-4c-1.104,0-2-0.9-2-2c0-1.107,0.896-2,2-2h4c1.104,0,2,0.893,2,2C34.008,63.1,33.112,64,32.008,64z   M32.008,36h-4c-1.104,0-2-0.896-2-2s0.896-2,2-2h4c1.104,0,2,0.896,2,2S33.112,36,32.008,36z M44.008,64h-4c-1.104,0-2-0.9-2-2  c0-1.107,0.896-2,2-2h4c1.104,0,2,0.893,2,2C46.008,63.1,45.112,64,44.008,64z M44.008,36h-4c-1.104,0-2-0.896-2-2s0.896-2,2-2h4  c1.104,0,2,0.896,2,2S45.112,36,44.008,36z M56.008,64h-4c-1.1,0-2-0.9-2-2c0-1.107,0.9-2,2-2h4c1.1,0,2,0.893,2,2  C58.008,63.1,57.107,64,56.008,64z M56.008,36h-4c-1.1,0-2-0.896-2-2s0.9-2,2-2h4c1.1,0,2,0.896,2,2S57.107,36,56.008,36z   M68.008,64h-4c-1.1,0-2-0.9-2-2c0-1.107,0.9-2,2-2h4c1.1,0,2,0.893,2,2C70.008,63.1,69.107,64,68.008,64z M68.008,36h-4  c-1.1,0-2-0.896-2-2s0.9-2,2-2h4c1.1,0,2,0.896,2,2S69.107,36,68.008,36z"/><text x="0" y="111" fill="#000000" font-size="5px" font-weight="bold" font-family="'Helvetica Neue', Helvetica, Arial-Unicode, Arial, Sans-serif">Created by iconsmind.com</text><text x="0" y="116" fill="#000000" font-size="5px" font-weight="bold" font-family="'Helvetica Neue', Helvetica, Arial-Unicode, Arial, Sans-serif">from the Noun Project</text></svg>