<svg xmlns="http://www.w3.org/2000/svg" xmlns:xlink="http://www.w3.org/1999/xlink" version="1.1" x="0px" y="0px" viewBox="0 0 512 640" style="enable-background:new 0 0 512 512;" xml:space="preserve"><g><path d="M392.9,188.3l-130.7-62.1c-1.9-0.9-4.1-1.4-6.2-1.3c-2.1-0.1-4.3,0.4-6.2,1.3l-130.8,62.1c-6.8,3.2-9.7,11.4-6.5,18.3   c3.2,6.8,11.4,9.7,18.3,6.5L256,153.6l125.2,59.4c1.9,0.9,3.9,1.3,5.9,1.3c5.1,0,10.1-2.9,12.4-7.8   C402.7,199.7,399.8,191.5,392.9,188.3z"/><path d="M256,160.3l-122.6,58.2c-0.8,0.4-1.6,0.7-2.4,0.9v162.7h250V219.4c-0.8-0.3-1.6-0.6-2.4-0.9L256,160.3z M327.4,334.1   c0,2.8-2.2,5-5,5s-5-2.2-5-5v-49.4H194.6v49.4c0,2.8-2.2,5-5,5s-5-2.2-5-5V225.3c0-2.8,2.2-5,5-5s5,2.2,5,5v49.4h122.7v-49.4   c0-2.8,2.2-5,5-5s5,2.2,5,5V334.1z"/></g><text x="0" y="527" fill="#000000" font-size="5px" font-weight="bold" font-family="'Helvetica Neue', Helvetica, Arial-Unicode, Arial, Sans-serif">Created by Pixelz Studio</text><text x="0" y="532" fill="#000000" font-size="5px" font-weight="bold" font-family="'Helvetica Neue', Helvetica, Arial-Unicode, Arial, Sans-serif">from the Noun Project</text></svg>