<svg xmlns="http://www.w3.org/2000/svg" xmlns:xlink="http://www.w3.org/1999/xlink" version="1.1" x="0px" y="0px" viewBox="0 0 100 125" style="enable-background:new 0 0 100 100;" xml:space="preserve"><path d="M92.986,46.445c-3.206-1.602-10.22-3.003-18.838-4.004L54.108,31.63l-0.2-0.2c-4.008-2.002-7.816-2.202-12.826-1.602  c-3.006,0.4-6.012,1.001-9.218,1.802c-6.613,1.602-13.627,4.204-19.439,7.007c-1.403,0-2.806,0-3.607,0  c-3.407,0-6.012,1.401-7.615,3.804C0.601,43.442,0,44.844,0,46.245v10.811c0,2.002,0.601,3.403,1.202,4.605  c0.2,0.2,0.401,0.601,0.601,0.801c1.603,1.802,4.008,2.402,6.413,2.402l0,0c-0.802-3.604,0.401-7.407,3.006-10.21  c2.004-2.002,4.81-3.203,8.016-3.203s6.012,1.201,8.016,3.203c2.605,2.603,3.808,6.406,3.006,10.21h36.473  c-0.802-3.604,0.401-7.407,3.006-10.21c2.004-2.002,4.81-3.203,8.016-3.203c3.206,0,6.012,1.201,8.016,3.203  c2.605,2.603,3.808,6.406,3.006,10.21h1.002c3.607,0,5.21-0.4,6.012-3.003c1.202-3.604,4.208-5.405,4.208-8.208  c0-0.601-0.2-1.201-0.601-1.802C98.196,49.448,94.79,47.446,92.986,46.445z M63.527,41.44l-42.485-2.402  c-0.401,0-0.401-0.4-0.2-0.601c5.411-2.402,15.832-4.805,21.042-5.405c3.407-0.4,7.214,0.2,9.82,1.401l12.024,6.406  C64.128,41.04,63.928,41.44,63.527,41.44z M77.756,54.453c-4.409,0-8.016,3.604-8.016,8.008s3.607,8.008,8.216,8.008  c4.208,0,7.816-3.604,7.816-7.808C85.772,58.257,82.164,54.453,77.756,54.453z M82.164,63.662c-0.401,1.602-1.804,3.003-3.407,3.403  c-3.006,0.601-5.812-1.602-5.812-4.605c0-2.603,2.004-4.605,4.609-4.605C80.561,57.857,82.966,60.659,82.164,63.662z M19.038,54.453  c-4.409,0-8.016,3.604-8.016,8.008s3.607,8.008,8.216,8.008c4.208,0,7.816-3.604,7.816-7.808  C27.255,58.257,23.647,54.453,19.038,54.453z M23.647,63.662c-0.401,1.602-1.804,3.003-3.407,3.403  c-3.006,0.601-5.812-1.602-5.812-4.605c0-2.603,2.004-4.605,4.609-4.605C22.044,57.857,24.449,60.659,23.647,63.662z"/><text x="0" y="115" fill="#000000" font-size="5px" font-weight="bold" font-family="'Helvetica Neue', Helvetica, Arial-Unicode, Arial, Sans-serif">Created by akash k</text><text x="0" y="120" fill="#000000" font-size="5px" font-weight="bold" font-family="'Helvetica Neue', Helvetica, Arial-Unicode, Arial, Sans-serif">from the Noun Project</text></svg>