<svg xmlns="http://www.w3.org/2000/svg" xmlns:xlink="http://www.w3.org/1999/xlink" version="1.1" x="0px" y="0px" viewBox="0 0 512 640" style="enable-background:new 0 0 512 512;" xml:space="preserve"><g><path d="M261.3,84.2L261.3,84.2c-17.6,0-31.7,14.7-30.8,32.3L244.3,401c0.4,9.1,7.9,16.2,17,16.2h0c9.1,0,16.5-7.1,17-16.2   l13.8-284.6C292.9,98.9,278.9,84.2,261.3,84.2z"/><polygon points="438.3,269.3 415.7,219.5 304.4,172.6 300.6,249.7 315.4,251.8 315.4,265.7 330.4,265.7 330.4,253.9 353.3,257.2    353.3,269.5 368.3,269.5 368.3,259.3  "/><polygon points="192.1,253.9 192.1,265.7 207.1,265.7 207.1,251.8 221.9,249.7 218.2,172.6 106.8,219.5 84.3,269.3 154.2,259.3    154.2,269.5 169.2,269.5 169.2,257.2  "/><path d="M295.4,356.5l-2.2,45.3c0,0.4-0.1,0.8-0.1,1.2l48.1,7.5l-15.6-36.9L295.4,356.5z"/><path d="M227.1,356.5L197,373.7l-15.6,36.9l48.1-7.5c0-0.4-0.1-0.8-0.1-1.2L227.1,356.5z"/></g><text x="0" y="527" fill="#000000" font-size="5px" font-weight="bold" font-family="'Helvetica Neue', Helvetica, Arial-Unicode, Arial, Sans-serif">Created by Pixelz Studio</text><text x="0" y="532" fill="#000000" font-size="5px" font-weight="bold" font-family="'Helvetica Neue', Helvetica, Arial-Unicode, Arial, Sans-serif">from the Noun Project</text></svg>